<?xml version="1.0" encoding="UTF-8"?>
<svg xmlns="http://www.w3.org/2000/svg" xmlns:xlink="http://www.w3.org/1999/xlink" width="37.5pt" height="37.499999pt" viewBox="0 0 37.5 37.499999" version="1.2">
<defs>
<clipPath id="clip1">
  <path d="M 0.519531 0.519531 L 37.007812 0.519531 L 37.007812 37.007812 L 0.519531 37.007812 Z M 0.519531 0.519531 "/>
</clipPath>
<clipPath id="clip2">
  <path d="M 19 14 L 29.894531 14 L 29.894531 29 L 19 29 Z M 19 14 "/>
</clipPath>
<clipPath id="clip3">
  <path d="M 21 28 L 29.894531 28 L 29.894531 30.09375 L 21 30.09375 Z M 21 28 "/>
</clipPath>
<clipPath id="clip4">
  <path d="M 19 7.59375 L 29.894531 7.59375 L 29.894531 17 L 19 17 Z M 19 7.59375 "/>
</clipPath>
<clipPath id="clip5">
  <path d="M 7.394531 20 L 18 20 L 18 29 L 7.394531 29 Z M 7.394531 20 "/>
</clipPath>
<clipPath id="clip6">
  <path d="M 7.394531 7.59375 L 18 7.59375 L 18 17 L 7.394531 17 Z M 7.394531 7.59375 "/>
</clipPath>
</defs>
<g id="surface1">
<g clip-path="url(#clip1)" clip-rule="nonzero">
<path style=" stroke:none;fill-rule:nonzero;fill:rgb(100%,100%,100%);fill-opacity:1;" d="M 18.894531 0.519531 C 8.757812 0.519531 0.519531 8.757812 0.519531 18.894531 C 0.519531 29.035156 8.757812 37.269531 18.894531 37.269531 C 29.035156 37.269531 37.269531 29.035156 37.269531 18.894531 C 37.269531 8.757812 29.035156 0.519531 18.894531 0.519531 Z M 18.894531 1.320312 C 28.613281 1.320312 36.472656 9.179688 36.472656 18.894531 C 36.472656 28.613281 28.613281 36.472656 18.894531 36.472656 C 9.179688 36.472656 1.320312 28.613281 1.320312 18.894531 C 1.320312 9.179688 9.179688 1.320312 18.894531 1.320312 Z M 18.894531 1.320312 "/>
</g>
<g clip-path="url(#clip2)" clip-rule="nonzero">
<path style=" stroke:none;fill-rule:nonzero;fill:rgb(100%,100%,100%);fill-opacity:1;" d="M 29.125 19.617188 C 28.703125 19.617188 28.363281 19.964844 28.363281 20.394531 C 28.363281 20.046875 28.363281 19.617188 28.363281 19.617188 C 28.363281 19.1875 28.019531 18.84375 27.601562 18.84375 C 27.179688 18.84375 26.835938 19.1875 26.835938 19.617188 C 26.835938 19.328125 26.835938 18.84375 26.835938 18.84375 C 26.835938 18.414062 26.496094 18.066406 26.074219 18.066406 C 25.652344 18.066406 25.3125 18.414062 25.3125 18.84375 C 25.3125 16.925781 25.3125 14.964844 25.3125 14.964844 C 25.3125 14.535156 24.972656 14.1875 24.550781 14.1875 C 24.128906 14.1875 23.789062 14.535156 23.789062 14.964844 L 23.789062 23.128906 C 23.789062 23.371094 23.734375 23.609375 23.628906 23.824219 L 23.40625 24.273438 L 23.027344 24.273438 L 22.597656 22.09375 C 22.402344 21.105469 21.550781 20.394531 20.5625 20.394531 C 20.238281 20.394531 19.976562 20.660156 19.976562 20.988281 C 19.976562 21.109375 20.011719 21.222656 20.074219 21.320312 L 20.46875 21.917969 C 20.648438 22.191406 20.761719 22.503906 20.800781 22.828125 L 21.070312 25.027344 C 21.101562 25.296875 21.203125 25.550781 21.363281 25.765625 L 22.265625 26.988281 L 22.265625 28.152344 L 29.125 28.152344 L 29.125 26.988281 L 29.726562 25.765625 C 29.832031 25.550781 29.886719 25.3125 29.886719 25.070312 L 29.886719 20.394531 C 29.886719 19.964844 29.546875 19.617188 29.125 19.617188 "/>
</g>
<g clip-path="url(#clip3)" clip-rule="nonzero">
<path style=" stroke:none;fill-rule:nonzero;fill:rgb(100%,100%,100%);fill-opacity:1;" d="M 21.882812 30.09375 L 29.503906 30.09375 L 29.503906 28.929688 L 21.882812 28.929688 L 21.882812 30.09375 "/>
</g>
<g clip-path="url(#clip4)" clip-rule="nonzero">
<path style=" stroke:none;fill-rule:nonzero;fill:rgb(100%,100%,100%);fill-opacity:1;" d="M 23.027344 16.125 L 23.027344 14.964844 C 23.027344 14.589844 23.164062 14.25 23.378906 13.980469 C 22.453125 13.191406 21.722656 12.207031 21.246094 11.074219 C 21.164062 10.875 21.121094 10.664062 21.121094 10.449219 C 21.121094 10 21.285156 9.589844 21.578125 9.296875 L 22.105469 8.757812 C 22.597656 8.257812 23.457031 8.257812 23.945312 8.757812 L 24.617188 9.441406 C 24.820312 9.644531 24.933594 9.917969 24.933594 10.210938 L 24.933594 10.261719 C 24.933594 10.675781 24.707031 11.050781 24.339844 11.238281 C 24.234375 11.289062 24.167969 11.398438 24.167969 11.515625 L 24.167969 11.570312 C 24.167969 11.652344 24.203125 11.730469 24.261719 11.792969 L 24.617188 12.15625 C 24.675781 12.214844 24.753906 12.246094 24.835938 12.246094 L 24.886719 12.246094 C 25.003906 12.246094 25.109375 12.179688 25.164062 12.074219 C 25.347656 11.703125 25.710938 11.472656 26.121094 11.472656 L 26.171875 11.472656 C 26.457031 11.472656 26.726562 11.585938 26.929688 11.792969 L 27.601562 12.476562 C 27.84375 12.726562 27.980469 13.058594 27.980469 13.410156 C 27.980469 13.765625 27.84375 14.097656 27.601562 14.347656 L 27.070312 14.886719 C 26.804688 15.15625 26.449219 15.316406 26.074219 15.339844 L 26.074219 16.125 L 28.363281 16.125 C 28.992188 16.125 29.503906 15.605469 29.503906 14.964844 L 29.503906 8.757812 C 29.503906 8.113281 28.992188 7.59375 28.363281 7.59375 L 20.738281 7.59375 C 20.109375 7.59375 19.597656 8.113281 19.597656 8.757812 L 19.597656 14.964844 C 19.597656 15.605469 20.109375 16.125 20.738281 16.125 L 23.027344 16.125 "/>
</g>
<path style=" stroke:none;fill-rule:nonzero;fill:rgb(100%,100%,100%);fill-opacity:1;" d="M 24 10.542969 C 24.105469 10.488281 24.167969 10.382812 24.167969 10.261719 L 24.167969 10.210938 C 24.167969 10.125 24.136719 10.046875 24.078125 9.988281 L 23.40625 9.304688 C 23.207031 9.101562 22.847656 9.101562 22.644531 9.304688 L 22.117188 9.84375 C 21.96875 9.992188 21.882812 10.203125 21.882812 10.414062 C 21.882812 10.5625 21.902344 10.667969 21.945312 10.769531 C 22.402344 11.851562 23.117188 12.789062 24.019531 13.515625 C 24.1875 13.449219 24.363281 13.410156 24.550781 13.410156 C 25.253906 13.410156 25.839844 13.902344 26.015625 14.5625 C 26.207031 14.550781 26.394531 14.476562 26.53125 14.339844 L 27.0625 13.800781 C 27.160156 13.699219 27.21875 13.554688 27.21875 13.410156 C 27.21875 13.265625 27.160156 13.125 27.0625 13.023438 L 26.390625 12.339844 C 26.328125 12.28125 26.253906 12.246094 26.171875 12.246094 L 26.121094 12.246094 C 26.003906 12.246094 25.898438 12.3125 25.84375 12.421875 C 25.660156 12.792969 25.296875 13.023438 24.886719 13.023438 L 24.835938 13.023438 C 24.550781 13.023438 24.28125 12.910156 24.078125 12.703125 L 23.722656 12.339844 C 23.519531 12.132812 23.40625 11.859375 23.40625 11.570312 L 23.40625 11.515625 C 23.40625 11.101562 23.632812 10.730469 24 10.542969 "/>
<g clip-path="url(#clip5)" clip-rule="nonzero">
<path style=" stroke:none;fill-rule:nonzero;fill:rgb(100%,100%,100%);fill-opacity:1;" d="M 16.546875 26.988281 L 8.164062 26.988281 L 8.164062 21.558594 L 16.546875 21.558594 Z M 16.167969 20.007812 L 8.542969 20.007812 C 7.914062 20.007812 7.398438 20.527344 7.398438 21.167969 L 7.398438 27.375 C 7.398438 28.019531 7.914062 28.539062 8.542969 28.539062 L 16.167969 28.539062 C 16.796875 28.539062 17.308594 28.019531 17.308594 27.375 L 17.308594 21.167969 C 17.308594 20.527344 16.796875 20.007812 16.167969 20.007812 "/>
</g>
<path style=" stroke:none;fill-rule:nonzero;fill:rgb(100%,100%,100%);fill-opacity:1;" d="M 8.925781 22.882812 L 8.925781 25.792969 L 10.511719 24.5 Z M 8.925781 22.882812 "/>
<path style=" stroke:none;fill-rule:nonzero;fill:rgb(100%,100%,100%);fill-opacity:1;" d="M 13.386719 24.226562 L 15.246094 22.332031 L 9.464844 22.332031 L 11.324219 24.226562 C 11.875 24.785156 12.835938 24.785156 13.386719 24.226562 "/>
<path style=" stroke:none;fill-rule:nonzero;fill:rgb(100%,100%,100%);fill-opacity:1;" d="M 15.785156 25.792969 L 15.785156 22.882812 L 14.195312 24.5 Z M 15.785156 25.792969 "/>
<path style=" stroke:none;fill-rule:nonzero;fill:rgb(100%,100%,100%);fill-opacity:1;" d="M 12.355469 25.4375 C 11.894531 25.4375 11.453125 25.292969 11.085938 25.03125 L 9.628906 26.214844 L 15.078125 26.214844 L 13.625 25.03125 C 13.253906 25.292969 12.816406 25.4375 12.355469 25.4375 "/>
<path style=" stroke:none;fill-rule:nonzero;fill:rgb(100%,100%,100%);fill-opacity:1;" d="M 12.355469 10.695312 C 11.933594 10.695312 11.59375 11.042969 11.59375 11.472656 L 11.59375 12.246094 C 11.59375 12.675781 11.933594 13.023438 12.355469 13.023438 C 12.773438 13.023438 13.117188 12.675781 13.117188 12.246094 L 13.117188 11.472656 C 13.117188 11.042969 12.773438 10.695312 12.355469 10.695312 "/>
<g clip-path="url(#clip6)" clip-rule="nonzero">
<path style=" stroke:none;fill-rule:nonzero;fill:rgb(100%,100%,100%);fill-opacity:1;" d="M 15.402344 13.410156 C 15.402344 14.054688 14.890625 14.574219 14.261719 14.574219 C 13.683594 14.574219 13.210938 14.136719 13.132812 13.574219 C 12.90625 13.714844 12.640625 13.800781 12.355469 13.800781 C 11.515625 13.800781 10.832031 13.105469 10.832031 12.246094 L 10.832031 11.472656 C 10.832031 10.617188 11.515625 9.917969 12.355469 9.917969 C 13.195312 9.917969 13.878906 10.617188 13.878906 11.472656 L 13.878906 13.410156 C 13.878906 13.625 14.050781 13.800781 14.261719 13.800781 C 14.46875 13.800781 14.640625 13.625 14.640625 13.410156 L 14.640625 11.472656 C 14.640625 10.1875 13.617188 9.144531 12.355469 9.144531 C 11.09375 9.144531 10.066406 10.1875 10.066406 11.472656 L 10.066406 12.246094 C 10.066406 13.53125 11.09375 14.574219 12.355469 14.574219 L 12.355469 15.351562 C 10.675781 15.351562 9.304688 13.957031 9.304688 12.246094 L 9.304688 11.472656 C 9.304688 9.761719 10.675781 8.367188 12.355469 8.367188 C 14.035156 8.367188 15.402344 9.761719 15.402344 11.472656 Z M 16.167969 7.59375 L 8.542969 7.59375 C 7.914062 7.59375 7.398438 8.113281 7.398438 8.757812 L 7.398438 14.964844 C 7.398438 15.605469 7.914062 16.125 8.542969 16.125 L 16.167969 16.125 C 16.796875 16.125 17.308594 15.605469 17.308594 14.964844 L 17.308594 8.757812 C 17.308594 8.113281 16.796875 7.59375 16.167969 7.59375 "/>
</g>
</g>
</svg>
