<?xml version="1.0" encoding="UTF-8"?>
<svg xmlns="http://www.w3.org/2000/svg" xmlns:xlink="http://www.w3.org/1999/xlink" width="37.5pt" height="37.499999pt" viewBox="0 0 37.5 37.499999" version="1.2">
<defs>
<clipPath id="clip1">
  <path d="M 0.523438 0.523438 L 37.007812 0.523438 L 37.007812 37.007812 L 0.523438 37.007812 Z M 0.523438 0.523438 "/>
</clipPath>
</defs>
<g id="surface1">
<g clip-path="url(#clip1)" clip-rule="nonzero">
<path style=" stroke:none;fill-rule:nonzero;fill:rgb(100%,100%,100%);fill-opacity:1;" d="M 36.308594 1.492188 C 35.347656 0.53125 33.785156 0.53125 32.828125 1.492188 L 18.898438 15.417969 L 4.976562 1.492188 C 4.011719 0.53125 2.457031 0.53125 1.492188 1.492188 C 0.53125 2.457031 0.53125 4.011719 1.492188 4.976562 L 15.417969 18.898438 L 1.492188 32.824219 C 0.53125 33.785156 0.53125 35.34375 1.492188 36.308594 C 2.457031 37.269531 4.011719 37.269531 4.976562 36.308594 L 18.898438 22.378906 L 32.828125 36.308594 C 33.785156 37.269531 35.347656 37.269531 36.308594 36.308594 C 37.265625 35.34375 37.265625 33.785156 36.308594 32.824219 L 22.378906 18.898438 L 36.308594 4.976562 C 37.265625 4.011719 37.265625 2.457031 36.308594 1.492188 "/>
</g>
</g>
</svg>
