<?xml version="1.0" encoding="UTF-8"?>
<svg xmlns="http://www.w3.org/2000/svg" xmlns:xlink="http://www.w3.org/1999/xlink" width="37.5pt" height="37.499999pt" viewBox="0 0 37.5 37.499999" version="1.2">
<defs>
<clipPath id="clip1">
  <path d="M 0.519531 0.519531 L 37.007812 0.519531 L 37.007812 37.007812 L 0.519531 37.007812 Z M 0.519531 0.519531 "/>
</clipPath>
<clipPath id="clip2">
  <path d="M 6.5625 5 L 31.3125 5 L 31.3125 29.746094 L 6.5625 29.746094 Z M 6.5625 5 "/>
</clipPath>
</defs>
<g id="surface1">
<g clip-path="url(#clip1)" clip-rule="nonzero">
<path style=" stroke:none;fill-rule:nonzero;fill:rgb(100%,100%,100%);fill-opacity:1;" d="M 18.894531 0.519531 C 8.757812 0.519531 0.519531 8.757812 0.519531 18.894531 C 0.519531 29.035156 8.757812 37.269531 18.894531 37.269531 C 29.035156 37.269531 37.269531 29.035156 37.269531 18.894531 C 37.269531 8.757812 29.035156 0.519531 18.894531 0.519531 Z M 18.894531 1.320312 C 28.613281 1.320312 36.472656 9.179688 36.472656 18.894531 C 36.472656 28.613281 28.613281 36.472656 18.894531 36.472656 C 9.179688 36.472656 1.320312 28.613281 1.320312 18.894531 C 1.320312 9.179688 9.179688 1.320312 18.894531 1.320312 Z M 18.894531 1.320312 "/>
</g>
<g clip-path="url(#clip2)" clip-rule="nonzero">
<path style=" stroke:none;fill-rule:nonzero;fill:rgb(100%,100%,100%);fill-opacity:1;" d="M 31.117188 17.046875 L 19.285156 5.214844 C 19.09375 5.023438 18.78125 5.023438 18.589844 5.214844 L 12.527344 11.277344 L 12.527344 8.523438 C 12.527344 8.25 12.308594 8.027344 12.035156 8.027344 C 11.761719 8.027344 11.542969 8.25 11.542969 8.523438 L 11.542969 12.261719 L 6.757812 17.046875 C 6.5625 17.242188 6.5625 17.550781 6.757812 17.746094 C 6.949219 17.9375 7.261719 17.9375 7.453125 17.746094 L 9.570312 15.628906 L 9.570312 29.230469 C 9.570312 29.5 9.789062 29.722656 10.0625 29.722656 L 27.8125 29.722656 C 28.085938 29.722656 28.304688 29.5 28.304688 29.230469 L 28.304688 15.628906 L 30.421875 17.746094 C 30.519531 17.839844 30.644531 17.890625 30.769531 17.890625 C 30.894531 17.890625 31.023438 17.839844 31.117188 17.746094 C 31.3125 17.550781 31.3125 17.242188 31.117188 17.046875 Z M 27.320312 28.734375 L 10.554688 28.734375 L 10.554688 14.640625 L 12.382812 12.816406 C 12.382812 12.816406 12.382812 12.816406 12.382812 12.8125 L 18.9375 6.261719 L 27.320312 14.640625 Z M 27.320312 28.734375 "/>
</g>
</g>
</svg>
