<?xml version="1.0" encoding="UTF-8"?>
<svg xmlns="http://www.w3.org/2000/svg" xmlns:xlink="http://www.w3.org/1999/xlink" width="38.25pt" height="38.249999pt" viewBox="0 0 38.25 38.249999" version="1.2">
<defs>
<clipPath id="clip1">
  <path d="M 0.417969 0.417969 L 37.195312 0.417969 L 37.195312 37.195312 L 0.417969 37.195312 Z M 0.417969 0.417969 "/>
</clipPath>
</defs>
<g id="surface1">
<path style=" stroke:none;fill-rule:nonzero;fill:rgb(100%,100%,100%);fill-opacity:1;" d="M 24.386719 12.523438 C 23.996094 12.523438 23.679688 12.839844 23.679688 13.230469 C 23.679688 13.617188 23.996094 13.933594 24.386719 13.933594 C 24.773438 13.933594 25.089844 13.617188 25.089844 13.230469 C 25.089844 12.839844 24.773438 12.523438 24.386719 12.523438 Z M 24.386719 12.523438 "/>
<path style=" stroke:none;fill-rule:nonzero;fill:rgb(100%,100%,100%);fill-opacity:1;" d="M 22.15625 9.5 L 15.460938 9.5 C 12.175781 9.5 9.5 12.175781 9.5 15.460938 L 9.5 22.15625 C 9.5 25.441406 12.175781 28.113281 15.460938 28.113281 L 22.15625 28.113281 C 25.441406 28.113281 28.113281 25.441406 28.113281 22.15625 L 28.113281 15.460938 C 28.117188 12.175781 25.441406 9.5 22.15625 9.5 Z M 18.808594 24.003906 C 15.941406 24.003906 13.613281 21.671875 13.613281 18.808594 C 13.613281 15.941406 15.941406 13.613281 18.808594 13.613281 C 21.671875 13.613281 24.003906 15.941406 24.003906 18.808594 C 24.003906 21.671875 21.671875 24.003906 18.808594 24.003906 Z M 24.386719 15.050781 C 23.382812 15.050781 22.566406 14.234375 22.566406 13.230469 C 22.566406 12.226562 23.382812 11.410156 24.386719 11.410156 C 25.390625 11.410156 26.203125 12.226562 26.203125 13.230469 C 26.203125 14.234375 25.390625 15.050781 24.386719 15.050781 Z M 24.386719 15.050781 "/>
<path style=" stroke:none;fill-rule:nonzero;fill:rgb(100%,100%,100%);fill-opacity:1;" d="M 18.808594 14.726562 C 16.558594 14.726562 14.726562 16.558594 14.726562 18.808594 C 14.726562 21.058594 16.558594 22.890625 18.808594 22.890625 C 21.058594 22.890625 22.890625 21.058594 22.890625 18.808594 C 22.890625 16.558594 21.058594 14.726562 18.808594 14.726562 Z M 18.808594 14.726562 "/>
<g clip-path="url(#clip1)" clip-rule="nonzero">
<path style=" stroke:none;fill-rule:nonzero;fill:rgb(100%,100%,100%);fill-opacity:1;" d="M 18.808594 0.417969 C 8.667969 0.417969 0.417969 8.667969 0.417969 18.808594 C 0.417969 28.945312 8.667969 37.195312 18.808594 37.195312 C 28.945312 37.195312 37.195312 28.945312 37.195312 18.808594 C 37.195312 8.667969 28.945312 0.417969 18.808594 0.417969 Z M 29.226562 22.15625 C 29.226562 26.054688 26.054688 29.226562 22.15625 29.226562 L 15.460938 29.226562 C 11.558594 29.226562 8.386719 26.054688 8.386719 22.15625 L 8.386719 15.460938 C 8.386719 11.558594 11.558594 8.386719 15.460938 8.386719 L 22.15625 8.386719 C 26.054688 8.386719 29.226562 11.558594 29.226562 15.460938 Z M 29.226562 22.15625 "/>
</g>
</g>
</svg>
