<?xml version="1.0" encoding="UTF-8"?>
<svg xmlns="http://www.w3.org/2000/svg" xmlns:xlink="http://www.w3.org/1999/xlink" width="75pt" height="74.999997pt" viewBox="0 0 75 74.999997" version="1.2">
<defs>
<clipPath id="clip1">
  <path d="M 38 0.1875 L 45 0.1875 L 45 23 L 38 23 Z M 38 0.1875 "/>
</clipPath>
<clipPath id="clip2">
  <path d="M 34 0.1875 L 39 0.1875 L 39 22 L 34 22 Z M 34 0.1875 "/>
</clipPath>
<clipPath id="clip3">
  <path d="M 30 0.1875 L 36 0.1875 L 36 23 L 30 23 Z M 30 0.1875 "/>
</clipPath>
<clipPath id="clip4">
  <path d="M 0 0.1875 L 74.8125 0.1875 L 74.8125 75 L 0 75 Z M 0 0.1875 "/>
</clipPath>
</defs>
<g id="surface1">
<path style=" stroke:none;fill-rule:nonzero;fill:rgb(98.039246%,98.81897%,98.81897%);fill-opacity:1;" d="M 52.96875 38.871094 C 52.957031 38.96875 52.945312 39.074219 52.9375 39.179688 C 52.921875 39.519531 52.792969 40.332031 52.792969 40.332031 L 60.386719 41.597656 C 60.441406 41.324219 60.460938 41.109375 60.535156 40.53125 C 60.5625 40.316406 60.402344 40.375 73.652344 41.890625 C 73.746094 41.089844 73.839844 39.878906 73.882812 38.25 L 53.007812 37.71875 C 53.007812 37.757812 52.984375 38.835938 52.96875 38.871094 "/>
<path style=" stroke:none;fill-rule:nonzero;fill:rgb(98.039246%,98.81897%,98.81897%);fill-opacity:1;" d="M 60.582031 35.1875 C 60.4375 34.054688 60.453125 34.113281 60.386719 33.753906 C 57.8125 34.183594 55.453125 34.578125 52.792969 35.019531 C 52.878906 35.488281 52.976562 36.285156 53.003906 37.410156 C 55.847656 37.480469 52.6875 37.492188 73.882812 37.246094 C 73.875 36.851562 73.867188 36.578125 73.863281 36.339844 C 73.847656 35.792969 73.828125 35.429688 73.726562 34.179688 C 59.398438 35.535156 60.636719 35.554688 60.582031 35.1875 "/>
<path style=" stroke:none;fill-rule:nonzero;fill:rgb(98.039246%,98.81897%,98.81897%);fill-opacity:1;" d="M 59.851562 31.304688 C 59.585938 30.371094 59.6875 30.699219 59.433594 29.941406 L 52.15625 32.460938 L 52.152344 32.460938 C 52.152344 32.460938 52.523438 33.453125 52.757812 34.839844 L 52.761719 34.839844 L 60.335938 33.480469 C 60.335938 33.46875 60.273438 33.117188 60.273438 33.105469 C 60.234375 32.894531 60.097656 33 73.175781 30.359375 C 73.171875 30.34375 73.167969 30.320312 73.164062 30.296875 C 73.085938 29.917969 72.804688 28.652344 72.613281 27.964844 L 60.035156 31.398438 C 59.957031 31.417969 59.871094 31.378906 59.851562 31.304688 "/>
<path style=" stroke:none;fill-rule:nonzero;fill:rgb(98.039246%,98.81897%,98.81897%);fill-opacity:1;" d="M 60.335938 41.871094 L 52.757812 40.511719 C 52.757812 40.515625 52.734375 40.664062 52.695312 40.894531 C 52.34375 42.4375 52.152344 42.890625 52.152344 42.890625 L 52.15625 42.890625 L 59.433594 45.410156 C 59.597656 44.921875 59.660156 44.738281 59.726562 44.492188 C 59.78125 44.285156 59.230469 44.203125 72.417969 48.085938 C 72.699219 47.097656 72.753906 46.898438 73.023438 45.703125 L 60.296875 42.867188 C 60.101562 42.824219 60.1875 42.730469 60.335938 41.871094 "/>
<path style=" stroke:none;fill-rule:nonzero;fill:rgb(98.039246%,98.81897%,98.81897%);fill-opacity:1;" d="M 52.09375 32.285156 L 59.347656 29.679688 C 59.066406 28.835938 57.632812 29.671875 71.421875 24.292969 C 70.589844 22.15625 70.109375 21.25 69.527344 20.113281 C 69.507812 20.078125 69.492188 20.039062 69.472656 20.003906 L 51.109375 30.039062 C 51.351562 30.527344 51.914062 31.664062 52.09375 32.285156 "/>
<path style=" stroke:none;fill-rule:nonzero;fill:rgb(98.039246%,98.81897%,98.81897%);fill-opacity:1;" d="M 56.578125 24.203125 C 55.917969 23.261719 56.085938 23.492188 55.742188 23.050781 L 49.667969 27.820312 C 50.226562 28.535156 50.609375 29.164062 51.015625 29.878906 L 51.019531 29.875 L 67.636719 20.542969 L 69.261719 19.628906 C 68.957031 19.089844 68.429688 18.125 67.570312 16.847656 C 56.199219 24.628906 56.703125 24.375 56.578125 24.203125 "/>
<path style=" stroke:none;fill-rule:nonzero;fill:rgb(98.039246%,98.81897%,98.81897%);fill-opacity:1;" d="M 55.574219 52.519531 L 49.554688 47.675781 C 48.949219 48.460938 48.359375 49.035156 47.886719 49.492188 L 53.109375 55.203125 C 53.46875 54.855469 53.800781 54.535156 53.800781 54.535156 C 53.945312 54.382812 53.789062 54.332031 63.273438 63.792969 C 64.269531 62.757812 64.527344 62.445312 64.800781 62.125 L 54.992188 53.464844 C 54.824219 53.320312 54.992188 53.269531 55.574219 52.519531 "/>
<path style=" stroke:none;fill-rule:nonzero;fill:rgb(98.039246%,98.81897%,98.81897%);fill-opacity:1;" d="M 54.117188 21.152344 C 53.699219 20.710938 53.828125 20.839844 53.109375 20.148438 L 47.886719 25.859375 C 48.480469 26.398438 49.191406 27.203125 49.554688 27.675781 L 55.574219 22.832031 C 55.472656 22.703125 55.5 22.738281 55.328125 22.515625 C 55.136719 22.289062 54.453125 22.953125 65.269531 13.773438 C 64.417969 12.777344 64.367188 12.71875 64.046875 12.375 C 63.972656 12.300781 63.886719 12.207031 63.769531 12.082031 C 53.8125 21.636719 54.265625 21.308594 54.117188 21.152344 "/>
<path style=" stroke:none;fill-rule:nonzero;fill:rgb(98.039246%,98.81897%,98.81897%);fill-opacity:1;" d="M 50.039062 17.726562 L 45.8125 24.222656 C 46.03125 24.359375 45.957031 24.28125 47.75 25.730469 L 52.910156 19.960938 C 52.90625 19.960938 52.535156 19.636719 52.535156 19.636719 C 52.375 19.496094 52.335938 19.660156 61.003906 9.429688 C 60.789062 9.242188 60.328125 8.824219 59.253906 8 L 51.402344 18.503906 C 51.265625 18.683594 51.164062 18.457031 50.039062 17.726562 "/>
<path style=" stroke:none;fill-rule:nonzero;fill:rgb(98.039246%,98.81897%,98.81897%);fill-opacity:1;" d="M 52.1875 56.019531 C 52.1875 56.019531 52.535156 55.71875 52.90625 55.386719 L 47.75 49.621094 C 47.1875 50.109375 46.449219 50.726562 45.8125 51.128906 C 46.328125 51.917969 49.515625 56.816406 50.039062 57.625 C 50.359375 57.417969 50.179688 57.542969 50.824219 57.078125 C 50.996094 56.953125 50.847656 56.871094 58.675781 67.777344 C 59.289062 67.335938 60.242188 66.570312 60.457031 66.390625 C 60.398438 66.320312 52.140625 56.214844 52.144531 56.117188 C 52.144531 56.082031 52.160156 56.042969 52.1875 56.019531 "/>
<path style=" stroke:none;fill-rule:nonzero;fill:rgb(98.039246%,98.81897%,98.81897%);fill-opacity:1;" d="M 43.511719 22.957031 C 43.726562 23.078125 44.425781 23.3125 45.65625 24.121094 L 49.808594 17.578125 C 49.570312 17.421875 49.394531 17.308594 49.394531 17.308594 C 49.214844 17.195312 49.207031 17.355469 56.09375 5.839844 C 55.441406 5.457031 54.980469 5.1875 54.488281 4.914062 C 53.851562 4.570312 53.164062 4.226562 51.949219 3.667969 L 43.511719 22.953125 L 43.511719 22.957031 "/>
<path style=" stroke:none;fill-rule:nonzero;fill:rgb(98.039246%,98.81897%,98.81897%);fill-opacity:1;" d="M 48.996094 58.277344 C 49.410156 58.039062 49.261719 58.128906 49.808594 57.773438 L 45.65625 51.230469 C 45.441406 51.386719 44.597656 51.902344 43.511719 52.394531 C 44.46875 54.585938 51.066406 69.664062 51.949219 71.683594 C 51.949219 71.683594 53.519531 71.015625 55.472656 69.875 C 48.601562 57.863281 48.8125 58.382812 48.996094 58.277344 "/>
<path style=" stroke:none;fill-rule:nonzero;fill:rgb(98.039246%,98.81897%,98.81897%);fill-opacity:1;" d="M 44.40625 14.945312 C 44.34375 14.980469 44.289062 14.949219 44.214844 14.925781 C 44.09375 14.878906 43.0625 14.589844 42.945312 14.558594 L 41.042969 22.089844 C 41.160156 22.089844 43.070312 22.722656 43.34375 22.878906 C 44.1875 20.890625 50.6875 5.550781 51.558594 3.492188 C 51.34375 3.382812 49.941406 2.824219 48.527344 2.34375 L 44.480469 14.851562 C 44.464844 14.890625 44.441406 14.925781 44.40625 14.945312 "/>
<path style=" stroke:none;fill-rule:nonzero;fill:rgb(98.039246%,98.81897%,98.81897%);fill-opacity:1;" d="M 41.042969 53.261719 L 42.945312 60.792969 C 43.164062 60.738281 43.371094 60.671875 43.535156 60.628906 C 43.730469 60.570312 43.863281 60.535156 43.863281 60.535156 C 44.066406 60.472656 43.949219 60.347656 47.84375 73.230469 C 47.90625 73.214844 47.972656 73.191406 48.039062 73.171875 C 49.101562 72.839844 51.191406 72.042969 51.558594 71.859375 C 50.601562 69.597656 44.3125 54.757812 43.34375 52.472656 C 43.128906 52.582031 41.492188 53.1875 41.042969 53.261719 "/>
<g clip-path="url(#clip1)" clip-rule="nonzero">
<path style=" stroke:none;fill-rule:nonzero;fill:rgb(98.039246%,98.81897%,98.81897%);fill-opacity:1;" d="M 38.546875 21.664062 C 39.617188 21.738281 40.863281 22.050781 40.863281 22.050781 L 40.867188 22.046875 L 42.679688 14.496094 C 42.605469 14.480469 42.269531 14.402344 42.199219 14.382812 C 41.996094 14.335938 42.035156 14.503906 44.832031 1.335938 C 44.8125 1.332031 44.796875 1.328125 44.777344 1.320312 C 44.175781 1.1875 42.984375 0.976562 42.4375 0.898438 L 40.554688 13.921875 C 40.519531 14.160156 40.367188 14.007812 39.128906 13.910156 L 38.546875 21.664062 "/>
</g>
<path style=" stroke:none;fill-rule:nonzero;fill:rgb(98.039246%,98.81897%,98.81897%);fill-opacity:1;" d="M 41.75 61.066406 C 41.875 61.042969 41.804688 61.058594 42.085938 60.996094 C 42.25 60.957031 42.460938 60.90625 42.679688 60.855469 L 40.867188 53.304688 L 40.863281 53.300781 C 40.070312 53.488281 39.285156 53.636719 38.457031 53.695312 L 39.105469 61.441406 C 39.550781 61.410156 39.488281 61.414062 39.9375 61.355469 C 40.148438 61.328125 40.054688 61.183594 41.726562 74.546875 C 42.074219 74.503906 42.335938 74.472656 42.679688 74.417969 C 43.027344 74.363281 43.453125 74.289062 44.128906 74.164062 L 41.644531 61.242188 C 41.628906 61.160156 41.679688 61.082031 41.75 61.066406 "/>
<g clip-path="url(#clip2)" clip-rule="nonzero">
<path style=" stroke:none;fill-rule:nonzero;fill:rgb(98.039246%,98.81897%,98.81897%);fill-opacity:1;" d="M 38.421875 21.652344 L 38.871094 13.890625 C 37.902344 13.816406 38.089844 15.546875 38.46875 0.535156 C 35.554688 0.457031 34.390625 0.625 34.171875 0.625 L 35.8125 21.648438 C 36.027344 21.648438 37.273438 21.523438 38.421875 21.652344 "/>
</g>
<path style=" stroke:none;fill-rule:nonzero;fill:rgb(98.039246%,98.81897%,98.81897%);fill-opacity:1;" d="M 37.765625 61.515625 C 38.597656 61.496094 38.175781 61.507812 38.832031 61.460938 L 38.273438 53.707031 C 36.851562 53.824219 35.910156 53.691406 35.695312 53.691406 C 35.585938 55.324219 34.523438 71.257812 34.292969 74.734375 C 34.820312 74.769531 35.914062 74.878906 37.925781 74.832031 C 37.617188 60.992188 37.542969 61.523438 37.765625 61.515625 "/>
<g clip-path="url(#clip3)" clip-rule="nonzero">
<path style=" stroke:none;fill-rule:nonzero;fill:rgb(98.039246%,98.81897%,98.81897%);fill-opacity:1;" d="M 32.632812 14.246094 C 32.167969 14.332031 32.460938 14.273438 31.363281 14.527344 L 33.222656 22.070312 C 33.792969 21.941406 35.042969 21.671875 35.625 21.664062 L 33.746094 0.660156 C 33.660156 0.664062 33.488281 0.679688 33.246094 0.703125 C 32.636719 0.773438 31.582031 0.910156 30.371094 1.128906 C 32.867188 14.773438 32.839844 14.210938 32.632812 14.246094 "/>
</g>
<path style=" stroke:none;fill-rule:nonzero;fill:rgb(98.039246%,98.81897%,98.81897%);fill-opacity:1;" d="M 33.222656 53.28125 L 31.363281 60.824219 C 31.800781 60.925781 32.179688 61.015625 32.179688 61.015625 C 32.386719 61.0625 32.34375 60.898438 29.664062 74.085938 C 29.753906 74.105469 29.84375 74.125 29.933594 74.140625 C 31.265625 74.40625 32.484375 74.574219 33.804688 74.695312 L 35.570312 53.683594 C 35.570312 53.683594 34.785156 53.640625 33.222656 53.28125 "/>
<path style=" stroke:none;fill-rule:nonzero;fill:rgb(98.039246%,98.81897%,98.81897%);fill-opacity:1;" d="M 28.882812 15.296875 C 27.714844 15.765625 27.925781 15.675781 27.679688 15.789062 L 30.75 22.917969 C 30.910156 22.835938 31.777344 22.484375 33.042969 22.113281 L 31.097656 14.59375 C 30.703125 14.707031 31.007812 14.621094 30.515625 14.761719 C 30.3125 14.820312 30.425781 14.945312 26.648438 2.03125 C 25.941406 2.230469 24.769531 2.640625 24.503906 2.738281 C 29.199219 15.773438 29.082031 15.21875 28.882812 15.296875 "/>
<path style=" stroke:none;fill-rule:nonzero;fill:rgb(98.039246%,98.81897%,98.81897%);fill-opacity:1;" d="M 30.074219 60.464844 C 30.074219 60.464844 30.582031 60.609375 31.097656 60.757812 L 33.042969 53.238281 C 32.5 53.085938 31.230469 52.679688 30.75 52.433594 C 30.492188 53.03125 28.125 58.53125 27.679688 59.5625 C 28.003906 59.707031 27.992188 59.699219 28.453125 59.882812 C 28.652344 59.960938 28.636719 59.789062 23.832031 72.355469 C 24.625 72.667969 24.753906 72.703125 25.960938 73.113281 L 29.898438 60.566406 C 29.921875 60.488281 29.996094 60.441406 30.074219 60.464844 "/>
<path style=" stroke:none;fill-rule:nonzero;fill:rgb(98.039246%,98.81897%,98.81897%);fill-opacity:1;" d="M 25.359375 16.96875 C 24.617188 17.402344 25.03125 17.152344 24.253906 17.652344 L 28.441406 24.171875 C 29.597656 23.417969 30.097656 23.242188 30.582031 22.996094 L 27.429688 15.902344 C 27.117188 16.046875 26.878906 16.15625 26.878906 16.15625 C 26.679688 16.238281 26.855469 16.425781 20.980469 4.25 C 19.65625 4.914062 19.203125 5.1875 18.988281 5.3125 C 25.753906 17.386719 25.542969 16.863281 25.359375 16.96875 "/>
<path style=" stroke:none;fill-rule:nonzero;fill:rgb(98.039246%,98.81897%,98.81897%);fill-opacity:1;" d="M 26.769531 59.140625 C 26.949219 59.234375 27.191406 59.335938 27.429688 59.449219 L 30.582031 52.355469 C 30.367188 52.246094 29.640625 51.960938 28.441406 51.179688 L 24.253906 57.699219 C 24.359375 57.769531 24.851562 58.089844 24.960938 58.152344 C 25.144531 58.257812 25.15625 58.085938 18.367188 69.679688 C 19.421875 70.300781 19.660156 70.421875 20.339844 70.773438 L 26.277344 59.058594 C 26.371094 58.871094 26.578125 59.042969 26.769531 59.140625 "/>
<path style=" stroke:none;fill-rule:nonzero;fill:rgb(98.039246%,98.81897%,98.81897%);fill-opacity:1;" d="M 26.355469 25.792969 C 26.542969 25.597656 27.722656 24.625 28.285156 24.273438 L 24.023438 17.800781 C 23.832031 17.925781 23.820312 17.9375 23.523438 18.152344 C 23.347656 18.277344 23.5 18.355469 15.765625 7.382812 C 14.140625 8.546875 12.492188 10.011719 12.277344 10.222656 L 26.207031 25.628906 L 26.355469 25.792969 "/>
<path style=" stroke:none;fill-rule:nonzero;fill:rgb(98.039246%,98.81897%,98.81897%);fill-opacity:1;" d="M 23.144531 56.929688 C 23.875 57.453125 23.878906 57.460938 24.023438 57.550781 L 28.285156 51.078125 C 28.050781 50.929688 26.722656 49.945312 26.355469 49.554688 L 26.324219 49.59375 L 12.277344 65.128906 C 12.277344 65.128906 12.339844 65.191406 12.457031 65.292969 C 13.09375 65.855469 14.003906 66.667969 15.183594 67.546875 L 22.945312 56.972656 C 22.992188 56.90625 23.082031 56.886719 23.144531 56.929688 "/>
<path style=" stroke:none;fill-rule:nonzero;fill:rgb(98.039246%,98.81897%,98.81897%);fill-opacity:1;" d="M 26.222656 49.425781 C 25.957031 49.171875 25.296875 48.554688 24.566406 47.605469 L 18.519531 52.410156 C 18.632812 52.554688 18.738281 52.695312 18.824219 52.804688 C 19.257812 53.339844 20.117188 52.324219 9.121094 61.828125 C 9.738281 62.554688 10.996094 63.914062 11.621094 64.527344 C 11.796875 64.699219 11.921875 64.8125 11.96875 64.835938 C 12.746094 63.996094 25.207031 50.523438 26.1875 49.46875 C 26.203125 49.449219 26.214844 49.4375 26.222656 49.425781 "/>
<path style=" stroke:none;fill-rule:nonzero;fill:rgb(98.039246%,98.81897%,98.81897%);fill-opacity:1;" d="M 18.519531 22.941406 L 24.566406 27.75 C 25.152344 27.007812 25.503906 26.613281 26.222656 25.925781 C 26.175781 25.875 26.125 25.816406 26.066406 25.753906 C 23.691406 23.1875 13.171875 11.820312 11.96875 10.515625 C 11.6875 10.785156 10.789062 11.628906 9.789062 12.75 C 9.722656 12.824219 9.65625 12.898438 9.589844 12.976562 L 19.324219 21.726562 C 19.484375 21.871094 19.339844 21.886719 18.519531 22.941406 "/>
<path style=" stroke:none;fill-rule:nonzero;fill:rgb(98.039246%,98.81897%,98.81897%);fill-opacity:1;" d="M 17.71875 51.320312 C 18.03125 51.761719 18.160156 51.957031 18.351562 52.191406 L 24.453125 47.457031 C 23.785156 46.617188 23.238281 45.609375 23.113281 45.394531 L 22.875 45.523438 L 16.367188 49.132812 C 16.367188 49.132812 16.726562 49.761719 16.726562 49.765625 C 16.832031 49.949219 16.921875 49.808594 5.476562 56.710938 C 5.6875 57.082031 6.421875 58.246094 6.789062 58.773438 L 17.511719 51.296875 C 17.582031 51.25 17.675781 51.261719 17.71875 51.320312 "/>
<path style=" stroke:none;fill-rule:nonzero;fill:rgb(98.039246%,98.81897%,98.81897%);fill-opacity:1;" d="M 16.960938 25.1875 C 16.886719 25.300781 16.433594 26.101562 16.367188 26.21875 L 23.113281 29.960938 C 23.242188 29.742188 23.796875 28.71875 24.453125 27.894531 C 23.566406 27.207031 25.722656 28.882812 18.347656 23.160156 C 17.707031 23.984375 19.277344 24.761719 7.207031 15.988281 C 6.488281 17 6.617188 16.816406 5.851562 18.023438 C 17.503906 25.367188 17.078125 25.003906 16.960938 25.1875 "/>
<path style=" stroke:none;fill-rule:nonzero;fill:rgb(98.039246%,98.81897%,98.81897%);fill-opacity:1;" d="M 22.054688 32.375 C 22.277344 31.683594 22.703125 30.769531 23.027344 30.125 L 16.238281 26.464844 C 16.171875 26.589844 15.992188 26.949219 15.90625 27.113281 C 15.8125 27.304688 15.984375 27.304688 3.996094 21.402344 C 3.402344 22.628906 2.769531 24.164062 2.339844 25.421875 C 3.957031 25.992188 14.277344 29.632812 19.402344 31.441406 C 20.679688 31.890625 21.636719 32.226562 22.054688 32.375 "/>
<path style=" stroke:none;fill-rule:nonzero;fill:rgb(98.039246%,98.81897%,98.81897%);fill-opacity:1;" d="M 15.746094 47.90625 C 15.804688 48.042969 16.171875 48.757812 16.238281 48.886719 C 18.738281 47.539062 20.316406 46.691406 22.785156 45.359375 C 22.863281 45.316406 22.945312 45.273438 23.027344 45.226562 C 22.917969 45.011719 22.382812 43.984375 22.054688 42.976562 L 6.875 48.332031 L 2.339844 49.929688 C 2.339844 50.148438 3.417969 52.691406 3.691406 53.292969 C 3.773438 53.253906 15.539062 47.722656 15.628906 47.75 C 15.699219 47.773438 15.714844 47.835938 15.746094 47.90625 "/>
<path style=" stroke:none;fill-rule:nonzero;fill:rgb(98.039246%,98.81897%,98.81897%);fill-opacity:1;" d="M 21.402344 40.421875 L 21.398438 40.421875 L 13.816406 41.734375 C 13.886719 42.132812 13.941406 42.453125 13.941406 42.453125 C 13.972656 42.664062 14.195312 42.539062 1.070312 45.3125 C 1.59375 47.796875 2.203125 49.519531 2.203125 49.519531 L 21.996094 42.800781 C 21.996094 42.800781 21.402344 40.859375 21.402344 40.421875 "/>
<path style=" stroke:none;fill-rule:nonzero;fill:rgb(98.039246%,98.81897%,98.81897%);fill-opacity:1;" d="M 14.042969 32.445312 C 13.914062 33.015625 13.972656 32.734375 13.816406 33.617188 L 21.398438 34.929688 L 21.402344 34.929688 C 21.402344 34.710938 21.710938 33.386719 21.996094 32.550781 C 21.589844 32.414062 20.628906 32.085938 19.332031 31.644531 C 14.246094 29.917969 4.015625 26.449219 2.203125 25.832031 C 2.09375 26.050781 1.566406 27.867188 1.226562 29.328125 L 13.925781 32.277344 C 14.007812 32.296875 14.0625 32.371094 14.042969 32.445312 "/>
<path style=" stroke:none;fill-rule:nonzero;fill:rgb(98.039246%,98.81897%,98.81897%);fill-opacity:1;" d="M 13.507812 36.277344 C 13.5 36.277344 13.472656 37.558594 13.46875 37.589844 C 21.492188 37.796875 20.367188 37.773438 21.164062 37.769531 C 21.183594 37.023438 21.179688 36.109375 21.367188 35.113281 L 13.765625 33.890625 C 13.722656 34.144531 13.730469 34.125 13.667969 34.613281 C 13.640625 34.824219 13.804688 34.765625 0.566406 33.132812 C 0.519531 33.519531 0.484375 33.800781 0.460938 34.0625 C 0.417969 34.496094 0.398438 34.878906 0.351562 35.605469 C 13.996094 36.167969 13.527344 36.058594 13.507812 36.277344 "/>
<path style=" stroke:none;fill-rule:nonzero;fill:rgb(98.039246%,98.81897%,98.81897%);fill-opacity:1;" d="M 13.765625 41.464844 L 21.367188 40.238281 C 21.367188 40.238281 21.21875 39.480469 21.167969 37.789062 C 20.339844 37.765625 21.488281 37.765625 13.472656 37.816406 C 13.476562 37.988281 13.488281 38.398438 13.488281 38.546875 C 13.496094 38.757812 13.644531 38.675781 0.320312 39.234375 C 0.320312 39.253906 0.324219 39.269531 0.324219 39.289062 C 0.34375 39.871094 0.4375 41.097656 0.480469 41.5 L 13.441406 40.15625 C 13.703125 40.128906 13.589844 40.457031 13.765625 41.464844 "/>
<path style=" stroke:none;fill-rule:nonzero;fill:rgb(98.039246%,98.81897%,98.81897%);fill-opacity:1;" d="M 59.007812 46.566406 C 59.292969 45.835938 59.261719 45.929688 59.347656 45.671875 L 52.09375 43.066406 C 52.09375 43.066406 52.050781 43.210938 51.960938 43.425781 C 51.886719 43.601562 51.828125 43.746094 51.777344 43.867188 C 51.425781 44.71875 51.550781 44.429688 51.109375 45.3125 L 51.152344 45.335938 L 69.472656 55.347656 C 69.832031 54.640625 70.566406 53.234375 71.160156 51.738281 C 58.816406 46.640625 58.929688 46.769531 59.007812 46.566406 "/>
<path style=" stroke:none;fill-rule:nonzero;fill:rgb(98.039246%,98.81897%,98.81897%);fill-opacity:1;" d="M 51.015625 45.472656 C 50.847656 45.765625 50.375 46.632812 49.667969 47.53125 L 55.742188 52.300781 C 56.054688 51.910156 56.3125 51.53125 56.3125 51.53125 C 56.433594 51.355469 56.265625 51.328125 67.160156 59.097656 C 67.332031 58.855469 67.492188 58.621094 67.644531 58.394531 C 68.46875 57.160156 69.015625 56.15625 69.261719 55.722656 C 67.34375 54.644531 53.175781 46.683594 51.066406 45.5 C 51.046875 45.488281 51.03125 45.480469 51.015625 45.472656 "/>
<g clip-path="url(#clip4)" clip-rule="nonzero">
<path style=" stroke:none;fill-rule:nonzero;fill:rgb(9.799194%,12.939453%,16.859436%);fill-opacity:1;" d="M 73.652344 41.890625 C 60.402344 40.375 60.5625 40.316406 60.535156 40.53125 C 60.460938 41.109375 60.441406 41.324219 60.386719 41.597656 L 52.792969 40.332031 C 52.792969 40.332031 52.921875 39.519531 52.9375 39.179688 C 52.945312 39.074219 52.957031 38.96875 52.96875 38.871094 C 52.984375 38.835938 53.007812 37.757812 53.007812 37.71875 L 73.882812 38.25 C 73.839844 39.878906 73.746094 41.089844 73.652344 41.890625 Z M 72.417969 48.085938 C 59.230469 44.203125 59.78125 44.285156 59.726562 44.492188 C 59.660156 44.738281 59.597656 44.921875 59.433594 45.410156 L 52.15625 42.890625 L 52.152344 42.890625 C 52.152344 42.890625 52.34375 42.4375 52.695312 40.894531 C 52.734375 40.664062 52.757812 40.515625 52.757812 40.511719 L 60.335938 41.871094 C 60.1875 42.730469 60.101562 42.824219 60.296875 42.867188 L 73.023438 45.703125 C 72.753906 46.898438 72.699219 47.097656 72.417969 48.085938 Z M 69.472656 55.347656 L 51.152344 45.335938 L 51.109375 45.3125 C 51.550781 44.429688 51.425781 44.71875 51.777344 43.867188 C 51.828125 43.746094 51.886719 43.601562 51.960938 43.425781 C 52.050781 43.210938 52.09375 43.066406 52.09375 43.066406 L 59.347656 45.671875 C 59.261719 45.929688 59.292969 45.835938 59.007812 46.566406 C 58.929688 46.769531 58.816406 46.640625 71.160156 51.738281 C 70.566406 53.234375 69.832031 54.640625 69.472656 55.347656 Z M 67.644531 58.394531 C 67.492188 58.621094 67.332031 58.855469 67.160156 59.097656 C 56.265625 51.328125 56.433594 51.355469 56.3125 51.53125 C 56.3125 51.53125 56.054688 51.910156 55.742188 52.300781 L 49.667969 47.53125 C 50.375 46.632812 50.847656 45.765625 51.015625 45.472656 C 51.03125 45.480469 51.046875 45.488281 51.066406 45.5 C 53.175781 46.683594 67.34375 54.644531 69.261719 55.722656 C 69.015625 56.15625 68.46875 57.160156 67.644531 58.394531 Z M 63.273438 63.792969 C 53.789062 54.332031 53.945312 54.382812 53.800781 54.535156 C 53.800781 54.535156 53.46875 54.855469 53.109375 55.203125 L 47.886719 49.492188 C 48.359375 49.035156 48.949219 48.460938 49.554688 47.675781 L 55.574219 52.519531 C 54.992188 53.269531 54.824219 53.320312 54.992188 53.464844 L 64.800781 62.125 C 64.527344 62.445312 64.269531 62.757812 63.273438 63.792969 Z M 58.675781 67.777344 C 50.847656 56.871094 50.996094 56.953125 50.824219 57.078125 C 50.179688 57.542969 50.359375 57.417969 50.039062 57.625 C 49.515625 56.816406 46.328125 51.917969 45.8125 51.128906 C 46.449219 50.726562 47.1875 50.109375 47.75 49.621094 L 52.90625 55.386719 C 52.535156 55.71875 52.1875 56.019531 52.1875 56.019531 C 52.160156 56.042969 52.144531 56.082031 52.144531 56.117188 C 52.140625 56.214844 60.398438 66.320312 60.457031 66.390625 C 60.242188 66.570312 59.289062 67.335938 58.675781 67.777344 Z M 51.949219 71.683594 C 51.066406 69.664062 44.46875 54.585938 43.511719 52.394531 C 44.597656 51.902344 45.441406 51.386719 45.65625 51.230469 L 49.808594 57.773438 C 49.261719 58.128906 49.410156 58.039062 48.996094 58.277344 C 48.8125 58.382812 48.601562 57.863281 55.472656 69.875 C 53.519531 71.015625 51.949219 71.683594 51.949219 71.683594 Z M 48.039062 73.171875 C 47.972656 73.191406 47.90625 73.214844 47.84375 73.230469 C 43.949219 60.347656 44.066406 60.472656 43.863281 60.535156 C 43.863281 60.535156 43.730469 60.570312 43.535156 60.628906 C 43.371094 60.671875 43.164062 60.738281 42.945312 60.792969 L 41.042969 53.261719 C 41.492188 53.1875 43.128906 52.582031 43.34375 52.472656 C 44.3125 54.757812 50.601562 69.597656 51.558594 71.859375 C 51.191406 72.042969 49.101562 72.839844 48.039062 73.171875 Z M 42.679688 74.417969 C 42.335938 74.472656 42.074219 74.503906 41.726562 74.546875 C 40.054688 61.183594 40.148438 61.328125 39.9375 61.355469 C 39.488281 61.414062 39.550781 61.410156 39.105469 61.441406 L 38.457031 53.695312 C 39.285156 53.636719 40.070312 53.488281 40.863281 53.300781 L 40.867188 53.304688 L 42.679688 60.855469 C 42.460938 60.90625 42.25 60.957031 42.085938 60.996094 C 41.804688 61.058594 41.875 61.042969 41.75 61.066406 C 41.679688 61.082031 41.628906 61.160156 41.644531 61.242188 L 44.128906 74.164062 C 43.453125 74.289062 43.027344 74.363281 42.679688 74.417969 Z M 37.925781 74.832031 C 35.914062 74.878906 34.820312 74.769531 34.292969 74.734375 C 34.523438 71.257812 35.585938 55.324219 35.695312 53.691406 C 35.910156 53.691406 36.851562 53.824219 38.273438 53.707031 L 38.832031 61.460938 C 38.175781 61.507812 38.597656 61.496094 37.765625 61.515625 C 37.542969 61.523438 37.617188 60.992188 37.925781 74.832031 Z M 29.933594 74.140625 C 29.84375 74.125 29.753906 74.105469 29.664062 74.085938 C 32.34375 60.898438 32.386719 61.0625 32.179688 61.015625 C 32.179688 61.015625 31.800781 60.925781 31.363281 60.824219 L 33.222656 53.28125 C 34.785156 53.640625 35.570312 53.683594 35.570312 53.683594 L 33.804688 74.695312 C 32.484375 74.574219 31.265625 74.40625 29.933594 74.140625 Z M 23.832031 72.355469 C 28.636719 59.789062 28.652344 59.960938 28.453125 59.882812 C 27.992188 59.699219 28.003906 59.707031 27.679688 59.5625 C 28.125 58.53125 30.492188 53.03125 30.75 52.433594 C 31.230469 52.679688 32.5 53.085938 33.042969 53.238281 L 31.097656 60.757812 C 30.582031 60.609375 30.074219 60.464844 30.074219 60.464844 C 29.996094 60.441406 29.921875 60.488281 29.898438 60.566406 L 25.960938 73.113281 C 24.753906 72.703125 24.625 72.667969 23.832031 72.355469 Z M 20.339844 70.773438 C 19.660156 70.421875 19.421875 70.300781 18.367188 69.679688 C 25.15625 58.085938 25.144531 58.257812 24.960938 58.152344 C 24.851562 58.089844 24.359375 57.769531 24.253906 57.699219 L 28.441406 51.179688 C 29.640625 51.960938 30.367188 52.246094 30.582031 52.355469 L 27.429688 59.449219 C 27.191406 59.335938 26.949219 59.234375 26.769531 59.140625 C 26.578125 59.042969 26.371094 58.871094 26.277344 59.058594 Z M 15.183594 67.546875 C 14.003906 66.667969 13.09375 65.855469 12.457031 65.292969 C 12.339844 65.191406 12.277344 65.128906 12.277344 65.128906 L 26.324219 49.59375 L 26.355469 49.554688 C 26.722656 49.945312 28.050781 50.929688 28.285156 51.078125 L 24.023438 57.550781 C 23.878906 57.460938 23.875 57.453125 23.144531 56.929688 C 23.082031 56.886719 22.992188 56.90625 22.945312 56.972656 Z M 11.96875 64.835938 C 11.921875 64.8125 11.796875 64.699219 11.621094 64.527344 C 10.996094 63.914062 9.738281 62.554688 9.121094 61.828125 C 20.117188 52.324219 19.257812 53.339844 18.824219 52.804688 C 18.738281 52.695312 18.632812 52.554688 18.519531 52.410156 L 24.566406 47.605469 C 25.296875 48.554688 25.957031 49.171875 26.222656 49.425781 C 26.214844 49.4375 26.203125 49.449219 26.1875 49.46875 C 25.207031 50.523438 12.746094 63.996094 11.96875 64.835938 Z M 5.476562 56.710938 C 16.921875 49.808594 16.832031 49.949219 16.726562 49.765625 C 16.726562 49.761719 16.367188 49.132812 16.367188 49.132812 L 22.875 45.523438 L 23.113281 45.394531 C 23.238281 45.609375 23.785156 46.617188 24.453125 47.457031 L 18.351562 52.191406 C 18.160156 51.957031 18.03125 51.761719 17.71875 51.320312 C 17.675781 51.261719 17.582031 51.25 17.511719 51.296875 L 6.789062 58.773438 C 6.421875 58.246094 5.6875 57.082031 5.476562 56.710938 Z M 3.691406 53.292969 C 3.417969 52.691406 2.339844 50.148438 2.339844 49.929688 L 6.875 48.332031 L 22.054688 42.976562 C 22.382812 43.984375 22.917969 45.011719 23.027344 45.226562 C 22.945312 45.273438 22.863281 45.316406 22.785156 45.359375 C 20.316406 46.691406 18.738281 47.539062 16.238281 48.886719 C 16.171875 48.757812 15.804688 48.042969 15.746094 47.90625 C 15.714844 47.835938 15.699219 47.773438 15.628906 47.75 C 15.539062 47.722656 3.773438 53.253906 3.691406 53.292969 Z M 1.070312 45.3125 C 14.195312 42.539062 13.972656 42.664062 13.941406 42.453125 C 13.941406 42.453125 13.886719 42.132812 13.816406 41.734375 L 21.398438 40.421875 L 21.402344 40.421875 C 21.402344 40.859375 21.996094 42.800781 21.996094 42.800781 L 2.203125 49.519531 C 2.203125 49.519531 1.59375 47.796875 1.070312 45.3125 Z M 0.480469 41.5 C 0.4375 41.097656 0.34375 39.871094 0.324219 39.289062 C 0.324219 39.269531 0.320312 39.253906 0.320312 39.234375 C 13.644531 38.675781 13.496094 38.757812 13.488281 38.546875 C 13.488281 38.398438 13.476562 37.988281 13.472656 37.816406 C 21.488281 37.765625 20.339844 37.765625 21.167969 37.789062 C 21.21875 39.480469 21.367188 40.238281 21.367188 40.238281 L 13.765625 41.464844 C 13.589844 40.457031 13.703125 40.128906 13.441406 40.15625 Z M 0.566406 33.132812 C 13.804688 34.765625 13.640625 34.824219 13.667969 34.613281 C 13.730469 34.125 13.722656 34.144531 13.765625 33.890625 L 21.367188 35.113281 C 21.179688 36.109375 21.183594 37.023438 21.164062 37.769531 C 20.367188 37.773438 21.492188 37.796875 13.46875 37.589844 C 13.472656 37.558594 13.5 36.277344 13.507812 36.277344 C 13.527344 36.058594 13.996094 36.167969 0.351562 35.605469 C 0.398438 34.878906 0.417969 34.496094 0.460938 34.0625 C 0.484375 33.800781 0.519531 33.519531 0.566406 33.132812 Z M 2.203125 25.832031 C 4.015625 26.449219 14.246094 29.917969 19.332031 31.644531 C 20.628906 32.085938 21.589844 32.414062 21.996094 32.550781 C 21.710938 33.386719 21.402344 34.710938 21.402344 34.929688 L 21.398438 34.929688 L 13.816406 33.617188 C 13.972656 32.734375 13.914062 33.015625 14.042969 32.445312 C 14.0625 32.371094 14.007812 32.296875 13.925781 32.277344 L 1.226562 29.328125 C 1.566406 27.867188 2.09375 26.050781 2.203125 25.832031 Z M 3.996094 21.402344 C 15.984375 27.304688 15.8125 27.304688 15.90625 27.113281 C 15.992188 26.949219 16.171875 26.589844 16.238281 26.464844 L 23.027344 30.125 C 22.703125 30.769531 22.277344 31.683594 22.054688 32.375 C 21.636719 32.226562 20.679688 31.890625 19.402344 31.441406 C 14.277344 29.632812 3.957031 25.992188 2.339844 25.421875 C 2.769531 24.164062 3.402344 22.628906 3.996094 21.402344 Z M 7.207031 15.988281 C 19.277344 24.761719 17.707031 23.984375 18.347656 23.160156 C 25.722656 28.882812 23.566406 27.207031 24.453125 27.894531 C 23.796875 28.71875 23.242188 29.742188 23.113281 29.960938 L 16.367188 26.21875 C 16.433594 26.101562 16.886719 25.300781 16.960938 25.1875 C 17.078125 25.003906 17.503906 25.367188 5.851562 18.023438 C 6.617188 16.816406 6.488281 17 7.207031 15.988281 Z M 11.96875 10.515625 C 13.171875 11.820312 23.691406 23.1875 26.066406 25.753906 C 26.125 25.816406 26.175781 25.875 26.222656 25.925781 C 25.503906 26.613281 25.152344 27.007812 24.566406 27.75 L 18.519531 22.941406 C 19.339844 21.886719 19.484375 21.871094 19.324219 21.726562 L 9.589844 12.976562 C 9.65625 12.898438 9.722656 12.824219 9.789062 12.75 C 10.789062 11.628906 11.6875 10.785156 11.96875 10.515625 Z M 15.765625 7.382812 C 23.5 18.355469 23.347656 18.277344 23.523438 18.152344 C 23.820312 17.9375 23.832031 17.925781 24.023438 17.800781 L 28.285156 24.273438 C 27.722656 24.625 26.542969 25.597656 26.355469 25.792969 L 26.207031 25.628906 L 12.277344 10.222656 C 12.492188 10.011719 14.140625 8.546875 15.765625 7.382812 Z M 20.980469 4.25 C 26.855469 16.425781 26.679688 16.238281 26.878906 16.15625 C 26.878906 16.15625 27.117188 16.046875 27.429688 15.902344 L 30.582031 22.996094 C 30.097656 23.242188 29.597656 23.417969 28.441406 24.171875 L 24.253906 17.652344 C 25.03125 17.152344 24.617188 17.402344 25.359375 16.96875 C 25.542969 16.863281 25.753906 17.386719 18.988281 5.3125 C 19.203125 5.1875 19.65625 4.914062 20.980469 4.25 Z M 26.648438 2.03125 C 30.425781 14.945312 30.3125 14.820312 30.515625 14.761719 C 31.007812 14.621094 30.703125 14.707031 31.097656 14.59375 L 33.042969 22.113281 C 31.777344 22.484375 30.910156 22.835938 30.75 22.917969 L 27.679688 15.789062 C 27.925781 15.675781 27.714844 15.765625 28.882812 15.296875 C 29.082031 15.21875 29.199219 15.773438 24.503906 2.738281 C 24.769531 2.640625 25.941406 2.230469 26.648438 2.03125 Z M 33.246094 0.703125 C 33.488281 0.679688 33.660156 0.664062 33.746094 0.660156 L 35.625 21.664062 C 35.042969 21.671875 33.792969 21.941406 33.222656 22.070312 L 31.363281 14.527344 C 32.460938 14.273438 32.167969 14.332031 32.632812 14.246094 C 32.839844 14.210938 32.867188 14.773438 30.371094 1.128906 C 31.582031 0.910156 32.636719 0.773438 33.246094 0.703125 Z M 38.46875 0.535156 C 38.089844 15.546875 37.902344 13.816406 38.871094 13.890625 L 38.421875 21.652344 C 37.273438 21.523438 36.027344 21.648438 35.8125 21.648438 L 34.171875 0.625 C 34.390625 0.625 35.554688 0.457031 38.46875 0.535156 Z M 40.554688 13.921875 L 42.4375 0.898438 C 42.984375 0.976562 44.175781 1.1875 44.777344 1.320312 C 44.796875 1.328125 44.8125 1.332031 44.832031 1.335938 C 42.035156 14.503906 41.996094 14.335938 42.199219 14.382812 C 42.269531 14.402344 42.605469 14.480469 42.679688 14.496094 L 40.867188 22.046875 L 40.863281 22.050781 C 40.863281 22.050781 39.617188 21.738281 38.546875 21.664062 L 39.128906 13.910156 C 40.367188 14.007812 40.519531 14.160156 40.554688 13.921875 Z M 48.527344 2.34375 C 49.941406 2.824219 51.34375 3.382812 51.558594 3.492188 C 50.6875 5.550781 44.1875 20.890625 43.34375 22.878906 C 43.070312 22.722656 41.160156 22.089844 41.042969 22.089844 L 42.945312 14.558594 C 43.0625 14.589844 44.09375 14.878906 44.214844 14.925781 C 44.289062 14.949219 44.34375 14.980469 44.40625 14.945312 C 44.441406 14.925781 44.464844 14.890625 44.480469 14.851562 Z M 54.488281 4.914062 C 54.980469 5.1875 55.441406 5.457031 56.09375 5.839844 C 49.207031 17.355469 49.214844 17.195312 49.394531 17.308594 C 49.394531 17.308594 49.570312 17.421875 49.808594 17.578125 L 45.65625 24.121094 C 44.425781 23.3125 43.726562 23.078125 43.511719 22.957031 L 43.511719 22.953125 L 51.949219 3.667969 C 53.164062 4.226562 53.851562 4.570312 54.488281 4.914062 Z M 61.003906 9.429688 C 52.335938 19.660156 52.375 19.496094 52.535156 19.636719 C 52.535156 19.636719 52.90625 19.960938 52.910156 19.960938 L 47.75 25.730469 C 45.957031 24.28125 46.03125 24.359375 45.8125 24.222656 L 50.039062 17.726562 C 51.164062 18.457031 51.265625 18.683594 51.402344 18.503906 L 59.253906 8 C 60.328125 8.824219 60.789062 9.242188 61.003906 9.429688 Z M 63.769531 12.082031 C 63.886719 12.207031 63.972656 12.300781 64.046875 12.375 C 64.367188 12.71875 64.417969 12.777344 65.269531 13.773438 C 54.453125 22.953125 55.136719 22.289062 55.328125 22.515625 C 55.5 22.738281 55.472656 22.703125 55.574219 22.832031 L 49.554688 27.675781 C 49.191406 27.203125 48.480469 26.398438 47.886719 25.859375 L 53.109375 20.148438 C 53.828125 20.839844 53.699219 20.710938 54.117188 21.152344 C 54.265625 21.308594 53.8125 21.636719 63.769531 12.082031 Z M 69.261719 19.628906 L 67.636719 20.542969 L 51.019531 29.875 L 51.015625 29.878906 C 50.609375 29.164062 50.226562 28.535156 49.667969 27.820312 L 55.742188 23.050781 C 56.085938 23.492188 55.917969 23.261719 56.578125 24.203125 C 56.703125 24.375 56.199219 24.628906 67.570312 16.847656 C 68.429688 18.125 68.957031 19.089844 69.261719 19.628906 Z M 69.527344 20.113281 C 70.109375 21.25 70.589844 22.15625 71.421875 24.292969 C 57.632812 29.671875 59.066406 28.835938 59.347656 29.679688 L 52.09375 32.285156 C 51.914062 31.664062 51.351562 30.527344 51.109375 30.039062 L 69.472656 20.003906 C 69.492188 20.039062 69.507812 20.078125 69.527344 20.113281 Z M 21.4375 37.734375 C 21.4375 37.726562 21.4375 37.714844 21.4375 37.707031 C 21.4375 29.449219 27.992188 21.671875 37.90625 21.925781 C 43.675781 22.070312 49.8125 26.253906 51.835938 32.476562 C 53.179688 36.457031 52.949219 40.398438 51.558594 43.773438 C 49.292969 49.261719 43.949219 53.246094 37.285156 53.445312 C 37.246094 53.445312 35.949219 53.429688 35.917969 53.410156 C 35.632812 53.371094 35.652344 53.390625 35.34375 53.351562 C 30.203125 52.679688 26.644531 49.558594 26.496094 49.265625 C 23.042969 45.925781 21.476562 41.835938 21.4375 37.851562 C 21.4375 37.8125 21.4375 37.773438 21.4375 37.734375 Z M 72.613281 27.964844 C 72.804688 28.652344 73.085938 29.917969 73.164062 30.296875 C 73.167969 30.320312 73.171875 30.34375 73.175781 30.359375 C 60.097656 33 60.234375 32.894531 60.273438 33.105469 C 60.273438 33.117188 60.335938 33.46875 60.335938 33.480469 L 52.761719 34.839844 L 52.757812 34.839844 C 52.523438 33.453125 52.152344 32.460938 52.152344 32.460938 L 52.15625 32.460938 L 59.433594 29.941406 C 59.6875 30.699219 59.585938 30.371094 59.851562 31.304688 C 59.871094 31.378906 59.957031 31.417969 60.035156 31.398438 Z M 73.726562 34.179688 C 73.828125 35.429688 73.847656 35.792969 73.863281 36.339844 C 73.867188 36.578125 73.875 36.851562 73.882812 37.246094 C 52.6875 37.492188 55.847656 37.480469 53.003906 37.410156 C 52.976562 36.285156 52.878906 35.488281 52.792969 35.019531 C 55.453125 34.578125 57.8125 34.183594 60.386719 33.753906 C 60.453125 34.113281 60.4375 34.054688 60.582031 35.1875 C 60.636719 35.554688 59.398438 35.535156 73.726562 34.179688 Z M 63.453125 37.675781 C 74.8125 37.675781 74.199219 37.769531 74.195312 37.460938 C 74.183594 36.949219 74.171875 36.589844 74.167969 36.332031 C 74.15625 35.835938 74.148438 35.695312 74.132812 35.511719 C 74.113281 35.230469 74.019531 33.9375 74 33.785156 C 73.921875 33.167969 73.941406 33.328125 73.808594 32.269531 C 73.808594 32.265625 73.800781 32.21875 73.800781 32.21875 C 73.777344 32.03125 73.757812 31.882812 73.675781 31.433594 C 73.613281 31.078125 73.550781 30.730469 73.511719 30.511719 C 73.511719 30.511719 73.511719 30.503906 73.484375 30.363281 C 73.476562 30.320312 73.46875 30.28125 73.460938 30.238281 C 72.894531 27.328125 72.125 25.535156 72.125 25.324219 C 71.707031 24.089844 71.253906 22.972656 70.761719 21.910156 C 70.453125 21.25 70.132812 20.609375 69.792969 19.972656 C 69.585938 19.589844 69.378906 19.210938 69.160156 18.828125 C 67.882812 16.492188 66.242188 14.234375 64.292969 12.140625 C 62.839844 10.574219 61.210938 9.097656 59.4375 7.757812 C 57.933594 6.617188 56.324219 5.574219 54.628906 4.65625 C 52.070312 3.265625 49.316406 2.148438 46.417969 1.394531 C 46.28125 1.355469 46.070312 1.308594 46.070312 1.308594 C 46.070312 1.308594 45.835938 1.25 45.601562 1.195312 C 45.371094 1.140625 45.136719 1.085938 45.136719 1.085938 C 45.039062 1.0625 44.941406 1.039062 44.84375 1.015625 C 42.179688 0.390625 39.195312 0.269531 38.628906 0.230469 C 38.234375 0.21875 37.84375 0.214844 37.453125 0.214844 C 36.011719 0.214844 34.601562 0.289062 33.21875 0.433594 C 30.910156 0.679688 28.6875 1.121094 26.5625 1.742188 C 24.566406 2.324219 22.652344 3.0625 20.835938 3.945312 C 16.46875 6.0625 12.65625 8.996094 9.53125 12.515625 C 8.058594 14.175781 6.738281 15.964844 5.582031 17.855469 C 3.449219 21.351562 1.882812 25.207031 0.972656 29.269531 C 0.617188 30.832031 0.363281 32.421875 0.210938 34.039062 C 0.0429688 35.769531 -0.00390625 37.527344 0.0703125 39.300781 C 0.152344 41.308594 0.394531 43.335938 0.800781 45.367188 C 1.039062 46.546875 1.328125 47.726562 1.679688 48.90625 C 2.667969 51.886719 3.792969 54.476562 5.199219 56.875 C 6.820312 59.644531 8.820312 62.160156 11.421875 64.730469 C 11.585938 64.890625 11.75 65.046875 11.914062 65.207031 C 11.914062 65.207031 11.964844 65.253906 12.011719 65.300781 C 12.058594 65.34375 12.105469 65.390625 12.105469 65.390625 C 12.230469 65.503906 12.410156 65.660156 12.628906 65.851562 C 14.515625 67.5 16.414062 68.867188 18.207031 69.949219 C 19.261719 70.589844 20.28125 71.128906 21.238281 71.570312 C 22.769531 72.28125 24.316406 72.882812 25.878906 73.375 C 27.207031 73.796875 28.542969 74.140625 29.878906 74.40625 C 34.199219 75.269531 38.539062 75.34375 42.722656 74.703125 C 44.558594 74.421875 46.367188 74.003906 48.128906 73.453125 C 51.359375 72.441406 54.4375 70.988281 57.269531 69.125 C 57.378906 69.054688 57.730469 68.824219 57.835938 68.753906 C 57.894531 68.714844 57.949219 68.675781 58.011719 68.632812 C 58.921875 67.984375 59.796875 67.308594 60.636719 66.605469 C 61.636719 65.773438 62.582031 64.902344 63.476562 63.992188 C 65.136719 62.308594 66.621094 60.5 67.910156 58.574219 C 70.484375 54.738281 72.304688 50.445312 73.308594 45.765625 C 73.738281 43.777344 74.015625 41.722656 74.144531 39.601562 C 74.164062 39.226562 74.15625 39.496094 74.191406 38.105469 C 74.191406 38.066406 74.175781 38.023438 74.148438 37.996094 C 74.082031 37.921875 63.550781 37.679688 63.453125 37.675781 "/>
</g>
</g>
</svg>
