<?xml version="1.0" encoding="UTF-8"?>
<svg xmlns="http://www.w3.org/2000/svg" xmlns:xlink="http://www.w3.org/1999/xlink" width="38.25pt" height="38.249999pt" viewBox="0 0 38.25 38.249999" version="1.2">
<defs>
<clipPath id="clip1">
  <path d="M 0.515625 0.515625 L 37.292969 0.515625 L 37.292969 37.292969 L 0.515625 37.292969 Z M 0.515625 0.515625 "/>
</clipPath>
</defs>
<g id="surface1">
<g clip-path="url(#clip1)" clip-rule="nonzero">
<path style=" stroke:none;fill-rule:nonzero;fill:rgb(100%,100%,100%);fill-opacity:1;" d="M 18.90625 0.515625 C 8.765625 0.515625 0.515625 8.765625 0.515625 18.90625 C 0.515625 29.042969 8.765625 37.292969 18.90625 37.292969 C 29.042969 37.292969 37.292969 29.042969 37.292969 18.90625 C 37.292969 8.765625 29.042969 0.515625 18.90625 0.515625 Z M 26.878906 22.53125 C 28.667969 24.117188 29.039062 24.683594 29.097656 24.78125 C 29.839844 25.957031 28.277344 26.101562 28.277344 26.101562 L 24.984375 26.101562 C 24.984375 26.101562 24.179688 26.109375 23.496094 25.65625 C 22.378906 24.921875 21.210938 23.503906 20.386719 23.75 C 19.699219 23.957031 19.703125 24.890625 19.703125 25.6875 C 19.703125 25.972656 19.457031 26.101562 18.90625 26.101562 C 18.351562 26.101562 18.121094 26.101562 17.875 26.101562 C 16.070312 26.101562 14.113281 25.492188 12.160156 23.453125 C 9.394531 20.566406 6.972656 14.753906 6.972656 14.753906 C 6.972656 14.753906 6.828125 14.460938 6.984375 14.28125 C 7.160156 14.082031 7.640625 14.109375 7.640625 14.109375 L 10.835938 14.105469 C 10.835938 14.105469 11.136719 14.164062 11.351562 14.316406 C 11.53125 14.441406 11.628906 14.679688 11.628906 14.679688 C 11.628906 14.679688 12.167969 16.449219 12.851562 17.582031 C 14.183594 19.785156 14.808594 19.839844 15.261719 19.605469 C 15.921875 19.261719 15.707031 16.914062 15.707031 16.914062 C 15.707031 16.914062 15.734375 15.910156 15.390625 15.460938 C 15.125 15.113281 14.613281 14.929688 14.390625 14.898438 C 14.210938 14.878906 14.511719 14.5625 14.894531 14.382812 C 15.40625 14.152344 16.105469 14.097656 17.304688 14.105469 C 18.238281 14.117188 18.507812 14.171875 18.875 14.253906 C 19.976562 14.511719 19.703125 15.179688 19.703125 17.535156 C 19.703125 18.292969 19.601562 19.351562 20.167969 19.703125 C 20.414062 19.855469 21.253906 20.042969 22.753906 17.609375 C 23.464844 16.457031 24.027344 14.546875 24.027344 14.546875 C 24.027344 14.546875 24.144531 14.335938 24.328125 14.230469 C 24.511719 14.125 24.507812 14.128906 24.761719 14.128906 C 25.015625 14.128906 27.566406 14.105469 28.125 14.105469 C 28.683594 14.105469 29.207031 14.101562 29.296875 14.429688 C 29.429688 14.898438 28.886719 16.511719 27.511719 18.265625 C 25.253906 21.136719 25.003906 20.867188 26.878906 22.53125 Z M 26.878906 22.53125 "/>
</g>
</g>
</svg>
